<svg xmlns="http://www.w3.org/2000/svg"><g fill="#fff" transform="translate(-336 -285)"><path d="m356 294 5.4.1a7.4 7.4 0 0 1 2.5.5 4.4 4.4 0 0 1 2.5 2.5 7.4 7.4 0 0 1 .5 2.5v10.8a7.4 7.4 0 0 1-.5 2.5 4.4 4.4 0 0 1-2.5 2.5 7.4 7.4 0 0 1-2.5.5h-10.8a7.4 7.4 0 0 1-2.5-.5 4.4 4.4 0 0 1-2.5-2.5 7.4 7.4 0 0 1-.5-2.5v-10.8a7.4 7.4 0 0 1 .5-2.5 4.4 4.4 0 0 1 2.5-2.5 7.4 7.4 0 0 1 2.5-.5h5.4m0-2.4h-5.5a9.8 9.8 0 0 0-3.2.7 6.8 6.8 0 0 0-4 3.9 9.8 9.8 0 0 0-.6 3.2 94.6 94.6 0 0 0 0 11 9.8 9.8 0 0 0 .7 3.2 6.8 6.8 0 0 0 3.9 4 9.8 9.8 0 0 0 3.2.6 94.6 94.6 0 0 0 11 0 9.8 9.8 0 0 0 3.2-.7 6.8 6.8 0 0 0 4-3.9 9.8 9.8 0 0 0 .6-3.2 94.6 94.6 0 0 0 0-11 9.8 9.8 0 0 0-.7-3.2 6.8 6.8 0 0 0-3.9-4 9.8 9.8 0 0 0-3.2-.6H356z"/><path d="M356 298.2a6.8 6.8 0 1 0 6.8 6.8 6.8 6.8 0 0 0-6.8-6.8zm0 11.2a4.4 4.4 0 1 1 4.4-4.4 4.4 4.4 0 0 1-4.4 4.4z"/><circle cx="1.6" cy="1.6" r="1.6" transform="translate(361.5 296.3)"/></g></svg>